<?xml version="1.0" encoding="utf-8"?>
<!-- Generator: Adobe Illustrator 16.0.4, SVG Export Plug-In . SVG Version: 6.00 Build 0)  -->
<!DOCTYPE svg PUBLIC "-//W3C//DTD SVG 1.1//EN" "http://www.w3.org/Graphics/SVG/1.1/DTD/svg11.dtd">
<svg version="1.1" id="Ebene_1" xmlns="http://www.w3.org/2000/svg" xmlns:xlink="http://www.w3.org/1999/xlink" x="0px" y="0px"
	 width="81px" height="144.581px" viewBox="0 0 81 144.581" enable-background="new 0 0 81 144.581" xml:space="preserve">
<path opacity="0.7" fill="#F15A24" d="M0,0v117.713l81-15.427V0H0z M67,81h-8V50.646c0-0.563-0.037-1.181-0.004-1.853
	c0.032-0.671,0.054-1.354,0.119-2.047L44.9,73.396c-0.325,0.607-0.754,0.922-1.274,1.257C43.106,74.989,42.492,75,41.799,75h-1.203
	c-0.694,0-1.3-0.011-1.82-0.348c-0.52-0.335-0.942-0.728-1.267-1.335L23.112,46.609c0.086,0.715-0.023,1.433,0.009,2.116
	C23.153,49.407,23,50.061,23,50.646V81h-7V34h6.234c0.39,0,0.726,0.014,1.008,0.035c0.281,0.022,0.536,0.078,0.764,0.164
	s0.439,0.229,0.634,0.423s0.379,0.455,0.552,0.78L39.231,61.5c0.368,0.694,0.709,1.414,1.024,2.161
	c0.314,0.748,0.623,1.5,0.926,2.259c0.303-0.78,0.618-1.549,0.942-2.308c0.325-0.758,0.671-1.483,1.04-2.177l13.91-26.033
	c0.173-0.325,0.352-0.585,0.536-0.78c0.184-0.195,0.39-0.336,0.618-0.422s0.482-0.143,0.764-0.166
	C59.273,34.014,59.609,34,59.999,34H67V81z"/>
<path fill="none" d="M40.255,63.662c0.314,0.748,0.623,1.5,0.926,2.259c0.303-0.78,0.618-1.549,0.942-2.308
	c0.325-0.758,0.671-1.483,1.04-2.177l13.91-26.033c0.173-0.325,0.352-0.585,0.536-0.78c0.184-0.195,0.39-0.336,0.618-0.422
	s0.482-0.141,0.764-0.163c0.281-0.021,0.617-0.033,1.007-0.033h6.598V81h-7.703V50.646c0-0.563,0.016-1.181,0.049-1.853
	c0.033-0.671,0.081-1.354,0.146-2.047l-14.202,26.65c-0.325,0.607-0.748,1.078-1.268,1.414c-0.52,0.336-1.127,0.504-1.82,0.504
	h-1.203c-0.694,0-1.3-0.167-1.82-0.504c-0.52-0.335-0.942-0.807-1.267-1.414L23.112,46.648c0.086,0.715,0.146,1.414,0.179,2.096
	c0.032,0.683,0.048,1.316,0.048,1.901V81h-7.702V34.005h6.597c0.39,0,0.726,0.011,1.008,0.033c0.281,0.022,0.536,0.076,0.764,0.163
	s0.439,0.228,0.634,0.422s0.379,0.455,0.552,0.78L39.231,61.5C39.6,62.194,39.941,62.914,40.255,63.662z"/>
<path fill="none" d="M40.255,63.662c0.314,0.748,0.623,1.5,0.926,2.259c0.303-0.78,0.618-1.549,0.942-2.308
	c0.325-0.758,0.671-1.483,1.04-2.177l13.91-26.033c0.173-0.325,0.352-0.585,0.536-0.78c0.184-0.195,0.39-0.336,0.618-0.422
	s0.482-0.141,0.764-0.163c0.281-0.021,0.617-0.033,1.007-0.033h6.598V81h-7.703V50.646c0-0.563,0.016-1.181,0.049-1.853
	c0.033-0.671,0.081-1.354,0.146-2.047l-14.202,26.65c-0.325,0.607-0.748,1.078-1.268,1.414c-0.52,0.336-1.127,0.504-1.82,0.504
	h-1.203c-0.694,0-1.3-0.167-1.82-0.504c-0.52-0.335-0.942-0.807-1.267-1.414L23.112,46.648c0.086,0.715,0.146,1.414,0.179,2.096
	c0.032,0.683,0.048,1.316,0.048,1.901V81h-7.702V34.005h6.597c0.39,0,0.726,0.011,1.008,0.033c0.281,0.022,0.536,0.076,0.764,0.163
	s0.439,0.228,0.634,0.422s0.379,0.455,0.552,0.78L39.231,61.5C39.6,62.194,39.941,62.914,40.255,63.662z"/>
<path opacity="0.8" fill="#C1272D" d="M24.669,0H0v93.418l81,51.163v-109L24.669,0z M67,81h-8V50.646
	c0-0.563-0.037-1.181-0.004-1.853c0.032-0.671,0.054-1.354,0.119-2.047L44.9,73.396c-0.325,0.607-0.754,0.922-1.274,1.257
	C43.106,74.989,42.492,75,41.799,75h-1.203c-0.694,0-1.3-0.011-1.82-0.348c-0.52-0.335-0.942-0.728-1.267-1.335L23.112,46.609
	c0.086,0.715-0.023,1.433,0.009,2.116C23.153,49.407,23,50.061,23,50.646V81h-7V34h6.234c0.39,0,0.726,0.014,1.008,0.035
	c0.281,0.022,0.536,0.078,0.764,0.164s0.439,0.229,0.634,0.423s0.379,0.455,0.552,0.78L39.231,61.5
	c0.368,0.694,0.709,1.414,1.024,2.161c0.314,0.748,0.623,1.5,0.926,2.259c0.303-0.78,0.618-1.549,0.942-2.308
	c0.325-0.758,0.671-1.483,1.04-2.177l13.91-26.033c0.173-0.325,0.352-0.585,0.536-0.78c0.184-0.195,0.39-0.336,0.618-0.422
	s0.482-0.143,0.764-0.166C59.273,34.014,59.609,34,59.999,34H67V81z"/>
</svg>
